<svg width="55" height="20" viewBox="0 0 55 20" fill="none" xmlns="http://www.w3.org/2000/svg">
<path d="M3.23427 14.2518C3.23427 16.1373 4.41172 17.3602 6.47966 17.3602C8.54574 17.3602 9.71393 16.1373 9.71393 14.2518V5.22266H12.9482V14.5478C12.9482 17.799 10.4322 19.9998 6.47966 19.9998C2.52707 19.9998 0 17.799 0 14.5478V5.22266H3.23427V14.2518Z" fill="#E1251B"/>
<path d="M26.0417 10.5991C26.0417 8.71366 24.8642 7.49074 22.7963 7.49074C20.7302 7.49074 19.562 8.71366 19.562 10.5991V19.6283H16.3296V10.3031C16.3296 7.05197 18.8455 4.85107 22.7981 4.85107C26.7489 4.85107 29.2759 7.05197 29.2759 10.3031V19.6283H26.0417V10.5991Z" fill="#00833E"/>
<path d="M32.4302 19.6284V5.22827H35.6645V19.6284H32.4302Z" fill="#238DC1"/>
<path d="M32.1968 1.7445C32.1968 0.770049 33.041 0 34.0518 0C35.0645 0 35.8957 0.770049 35.8957 1.7445C35.8957 2.70839 35.0626 3.47844 34.0518 3.47844C33.041 3.47844 32.1968 2.70662 32.1968 1.7445Z" fill="#238DC1"/>
<path d="M46.187 11.2352L44.3245 10.8652C42.5139 10.4951 41.7752 9.96475 41.7752 9.05373C41.7752 7.92244 42.8453 7.19292 44.4634 7.19292C46.0222 7.19292 47.1534 7.95768 47.3089 9.13126C47.32 9.21408 47.3311 9.348 47.3311 9.46959H50.3543C50.3543 9.46959 50.3543 9.30571 50.3525 9.17179V9.14183C50.2562 6.59027 47.8476 4.81934 44.4412 4.81934C40.8755 4.81934 38.5299 6.60085 38.5299 9.29161C38.5299 11.4819 39.9109 12.8335 42.7268 13.3938L44.7392 13.8044C46.635 14.1939 47.4051 14.7454 47.4051 15.6952C47.4051 16.8159 46.2166 17.6053 44.5356 17.6053C42.7157 17.6053 41.4513 16.8353 41.3013 15.6335C41.2809 15.4873 41.2828 15.3199 41.2828 15.3199H38.167L38.1725 15.5525L38.1818 15.7234C38.3503 18.3419 40.7237 19.9948 44.3634 19.9948C48.2401 19.9948 50.6283 18.2133 50.6283 15.3322C50.6302 13.1066 49.2916 11.8555 46.187 11.2352Z" fill="#F7BE00"/>
</svg>
